<svg width="44" height="44" viewBox="0 0 44 44" fill="none" xmlns="http://www.w3.org/2000/svg">
<path d="M21.3333 23.6667C25.3834 23.6667 28.6667 20.3834 28.6667 16.3333C28.6667 12.2832 25.3834 9 21.3333 9C17.2832 9 14 12.2832 14 16.3333C14 20.3834 17.2832 23.6667 21.3333 23.6667Z" stroke="#000000" stroke-width="2.75" stroke-linecap="round" stroke-linejoin="round"/>
<path d="M22 42C33.0457 42 42 33.0457 42 22C42 10.9543 33.0457 2 22 2C10.9543 2 2 10.9543 2 22C2 33.0457 10.9543 42 22 42Z" stroke="#000000" stroke-width="2.75" stroke-linecap="round" stroke-linejoin="round"/>
<path d="M11 38.5V34.8333C11 32.8884 11.7726 31.0232 13.1479 29.6479C14.5232 28.2726 16.3884 27.5 18.3333 27.5H25.6667C27.6116 27.5 29.4768 28.2726 30.8521 29.6479C32.2274 31.0232 33 32.8884 33 34.8333V38.5" stroke="#000000" stroke-width="2.75" stroke-linecap="round" stroke-linejoin="round"/>
</svg>
