<svg width="38" height="38" viewBox="0 0 44 44" fill="none" xmlns="http://www.w3.org/2000/svg">
<path d="M16.5 12.8333H11C10.0275 12.8333 9.0949 13.2196 8.40727 13.9073C7.71964 14.5949 7.33333 15.5275 7.33333 16.5V33C7.33333 33.9725 7.71964 34.9051 8.40727 35.5927C9.0949 36.2804 10.0275 36.6667 11 36.6667H27.5C28.4725 36.6667 29.4051 36.2804 30.0927 35.5927C30.7804 34.9051 31.1667 33.9725 31.1667 33V27.5" stroke="#3ab5fb" stroke-width="2.75" stroke-linecap="round" stroke-linejoin="round"/>
<path d="M16.5 27.5H22L37.5833 11.9167C38.3127 11.1873 38.7224 10.1981 38.7224 9.16667C38.7224 8.13522 38.3127 7.14601 37.5833 6.41667C36.854 5.68732 35.8648 5.27758 34.8333 5.27758C33.8019 5.27758 32.8127 5.68732 32.0833 6.41667L16.5 22V27.5Z" stroke="#3ab5fb" stroke-width="2.75" stroke-linecap="round" stroke-linejoin="round"/>
<path d="M29.3333 9.16667L34.8333 14.6667" stroke="#3ab5fb" stroke-width="2.75" stroke-linecap="round" stroke-linejoin="round"/>
</svg>
