<svg width="75" height="75" viewBox="0 0 85 85" fill="none" xmlns="http://www.w3.org/2000/svg">
<circle cx="42.5" cy="42.5" r="40.5" fill="white" stroke="#3AB5FB" stroke-width="4"/>
<path d="M50.256 33.964C52.176 33.964 53.64 34.54 54.648 35.692C55.68 36.82 56.196 38.656 56.196 41.2V50.056C56.196 50.752 55.98 51.292 55.548 51.676C55.14 52.036 54.6 52.216 53.928 52.216C53.28 52.216 52.74 52.036 52.308 51.676C51.9 51.292 51.696 50.752 51.696 50.056V41.2C51.696 39.88 51.456 38.944 50.976 38.392C50.52 37.816 49.812 37.528 48.852 37.528C47.676 37.528 46.74 37.936 46.044 38.752C45.348 39.544 45 40.636 45 42.028V50.056C45 50.752 44.784 51.292 44.352 51.676C43.944 52.036 43.416 52.216 42.768 52.216C42.12 52.216 41.58 52.036 41.148 51.676C40.716 51.292 40.5 50.752 40.5 50.056V41.2C40.5 39.88 40.26 38.944 39.78 38.392C39.324 37.816 38.616 37.528 37.656 37.528C36.48 37.528 35.544 37.936 34.848 38.752C34.176 39.544 33.84 40.636 33.84 42.028V50.056C33.84 50.752 33.624 51.292 33.192 51.676C32.76 52.036 32.22 52.216 31.572 52.216C30.924 52.216 30.384 52.036 29.952 51.676C29.544 51.292 29.34 50.752 29.34 50.056V36.124C29.34 35.452 29.556 34.936 29.988 34.576C30.42 34.216 30.96 34.036 31.608 34.036C32.232 34.036 32.736 34.216 33.12 34.576C33.528 34.912 33.732 35.404 33.732 36.052V36.916C34.284 35.956 35.016 35.224 35.928 34.72C36.864 34.216 37.932 33.964 39.132 33.964C41.772 33.964 43.536 35.068 44.424 37.276C44.952 36.268 45.732 35.464 46.764 34.864C47.796 34.264 48.96 33.964 50.256 33.964Z" fill="#3AB5FB"/>
</svg>
