<svg width="44" height="44" viewBox="0 0 44 44" fill="none" xmlns="http://www.w3.org/2000/svg">
<path d="M25.6667 14.6667V11C25.6667 10.0275 25.2804 9.09491 24.5927 8.40728C23.9051 7.71964 22.9725 7.33334 22 7.33334H9.16667C8.19421 7.33334 7.26158 7.71964 6.57394 8.40728C5.88631 9.09491 5.5 10.0275 5.5 11V33C5.5 33.9725 5.88631 34.9051 6.57394 35.5927C7.26158 36.2804 8.19421 36.6667 9.16667 36.6667H22C22.9725 36.6667 23.9051 36.2804 24.5927 35.5927C25.2804 34.9051 25.6667 33.9725 25.6667 33V29.3333" stroke="#000000" stroke-width="2.75" stroke-linecap="round" stroke-linejoin="round"/>
<path d="M12.8333 22H38.5M38.5 22L33 16.5M38.5 22L33 27.5" stroke="#000000" stroke-width="2.75" stroke-linecap="round" stroke-linejoin="round"/>
</svg>
