<svg width="60" height="44" viewBox="0 0 70 54" fill="none" xmlns="http://www.w3.org/2000/svg">
<path d="M57.1847 0.477783C51.1978 0.477783 46.1565 4.6045 44.7561 10.1628H5.12094C3.7815 10.1628 2.5159 10.6762 1.55449 11.609C1.55354 11.61 1.55244 11.6109 1.55148 11.6119C1.54834 11.615 1.54506 11.618 1.54178 11.6212C0.547559 12.593 0 13.8937 0 15.2837V48.4013C0 49.8118 0.590352 51.1732 1.6193 52.1368C1.62135 52.1387 1.6234 52.1408 1.62545 52.1427C2.57729 53.0323 3.81855 53.5223 5.12094 53.5223H53.4309C54.7292 53.5223 55.9669 53.0355 56.9171 52.1516C56.9239 52.1453 56.9306 52.139 56.9373 52.1326C57.9634 51.1687 58.5517 49.8096 58.5517 48.4014V26.0361C64.9779 25.3516 70 19.8979 70 13.2931C70 6.22681 64.2511 0.477783 57.1847 0.477783V0.477783ZM5.12094 12.8972H44.3755C44.3715 13.0287 44.3695 13.1606 44.3695 13.2931C44.3695 15.7416 45.0598 18.0319 46.2558 19.9798L30.1696 35.1859H28.3825L4.82289 12.9155C4.92105 12.9033 5.02059 12.8972 5.12094 12.8972V12.8972ZM2.73438 15.2837C2.73438 15.1048 2.75393 14.929 2.79193 14.7586L21.9449 32.8634L2.84047 49.1078C2.77115 48.8825 2.73438 48.6453 2.73438 48.4013V15.2837ZM53.4309 50.7878H5.12094C5.10973 50.7878 5.09879 50.7865 5.08772 50.7863L23.9438 34.7529L26.8994 37.5467C27.1533 37.7867 27.4894 37.9203 27.8387 37.9203H30.7135C31.0628 37.9203 31.3988 37.7865 31.6527 37.5467L34.6082 34.7529L53.4658 50.7875C53.4542 50.7877 53.4425 50.7878 53.4309 50.7878ZM55.8175 48.4013C55.8175 48.6454 55.7815 48.8829 55.7121 49.1084L36.607 32.8633L47.9354 22.1548C49.9728 24.2805 52.7334 25.7076 55.8175 26.0361V48.4013ZM57.1847 23.3742C51.626 23.3742 47.1037 18.8518 47.1037 13.2931C47.1037 7.7344 51.626 3.21216 57.1847 3.21216C62.7434 3.21216 67.2656 7.7344 67.2656 13.2931C67.2656 18.8518 62.7434 23.3742 57.1847 23.3742Z" fill="#3AB5FB"/>
<path d="M57.6446 8.9147H56.1831C55.428 8.9147 54.8159 9.52693 54.8159 10.2819C54.8159 11.0369 55.428 11.6491 56.1831 11.6491H56.2774V17.1166C56.2774 17.8716 56.8895 18.4838 57.6446 18.4838C58.3997 18.4838 59.0118 17.8716 59.0118 17.1166V10.2819C59.0118 9.52679 58.3997 8.9147 57.6446 8.9147Z" fill="#3AB5FB"/>
</svg>
