<svg width="44" height="44" viewBox="0 0 44 44" fill="none" xmlns="http://www.w3.org/2000/svg">
<path d="M34.8333 29.3333V34.8333C34.8333 35.3196 34.6402 35.7859 34.2964 36.1297C33.9525 36.4735 33.4862 36.6667 33 36.6667H11C10.0275 36.6667 9.0949 36.2804 8.40727 35.5927C7.71964 34.9051 7.33333 33.9725 7.33333 33V11M31.1667 14.6667V9.16667C31.1667 8.68044 30.9735 8.21412 30.6297 7.87031C30.2859 7.52649 29.8196 7.33334 29.3333 7.33334H11C10.0275 7.33334 9.0949 7.71964 8.40727 8.40728C7.71964 9.09491 7.33333 10.0275 7.33333 11C7.33333 11.9725 7.71964 12.9051 8.40727 13.5927C9.0949 14.2804 10.0275 14.6667 11 14.6667H33C33.4862 14.6667 33.9525 14.8598 34.2964 15.2036C34.6402 15.5475 34.8333 16.0138 34.8333 16.5V22L31.1667 14.6667Z" stroke="#000000" stroke-width="2.75" stroke-linecap="round" stroke-linejoin="round"/>
<path d="M36.6667 22V29.3333H29.3333C28.3609 29.3333 27.4282 28.947 26.7406 28.2594C26.053 27.5718 25.6667 26.6391 25.6667 25.6667C25.6667 24.6942 26.053 23.7616 26.7406 23.0739C27.4282 22.3863 28.3609 22 29.3333 22H36.6667Z" stroke="#000000" stroke-width="2.75" stroke-linecap="round" stroke-linejoin="round"/>
</svg>
